<?xml version="1.0" standalone="no"?>
<!DOCTYPE svg PUBLIC "-//W3C//DTD SVG 20010904//EN"
 "http://www.w3.org/TR/2001/REC-SVG-20010904/DTD/svg10.dtd">
<svg version="1.0" xmlns="http://www.w3.org/2000/svg"
 width="300.000000pt" height="300.000000pt" viewBox="0 0 300.000000 300.000000"
 preserveAspectRatio="xMidYMid meet">
<metadata>
Created by potrace 1.10, written by Peter Selinger 2001-2011
</metadata>
<g transform="translate(0.000000,300.000000) scale(0.050000,-0.050000)"
fill="#fbbd98" stroke="none">
<path d="M1093 5244 c-6 -9 -16 -146 -24 -305 -45 -948 267 -1535 955 -1797
l53 -20 -99 -149 c-328 -493 -361 -1213 -83 -1833 55 -122 227 -400 248 -400
21 0 5 74 -24 110 -96 122 -239 746 -239 1047 0 619 140 931 599 1333 237 208
240 212 165 326 l-30 46 -92 -87 c-51 -47 -150 -136 -222 -196 -71 -59 -142
-120 -156 -134 -49 -46 -149 18 -381 242 -371 360 -500 678 -548 1348 -7 105
-20 110 140 -48 227 -222 432 -352 835 -526 379 -165 557 -314 682 -574 83
-172 98 -178 66 -25 -78 366 -295 594 -769 806 -389 175 -760 460 -959 739
-80 111 -99 127 -117 97z"/>
<path d="M3261 4905 c-178 -62 -351 -282 -401 -508 l-25 -113 65 -81 c78 -97
100 -91 100 24 0 407 392 689 738 532 l87 -39 -104 -110 c-197 -209 -272 -448
-301 -954 -29 -513 -58 -614 -223 -770 -130 -123 -414 -225 -717 -257 -232
-25 -200 -68 50 -69 573 0 905 206 1011 626 12 46 29 246 39 444 42 897 310
1167 1245 1253 314 28 297 56 -35 57 -272 0 -443 -23 -626 -83 -138 -45 -118
-47 -464 51 -138 40 -323 38 -439 -3z"/>
</g>
</svg>
